<svg id="Layer_1" enable-background="new 0 0 512 512" height="512" viewBox="0 0 512 512" width="512" xmlns="http://www.w3.org/2000/svg"><g><path d="m470.526 441.266-89.916-26.977c-5.137 38.174-37.907 67.711-77.465 67.711h-94.29c-39.558 0-72.327-29.537-77.465-67.711l-89.916 26.977c-24.83 7.448-41.505 29.881-41.474 55.806.01 8.255 6.746 14.928 15 14.928h482c8.254 0 14.99-6.673 15-14.928.032-25.925-16.644-48.358-41.474-55.806z"/><path d="m160.667 387.702v16.11c0 26.614 21.574 48.188 48.188 48.188h94.29c26.614 0 48.188-21.574 48.188-48.188v-16.11c-28.026 16.369-60.601 25.765-95.333 25.765s-67.307-9.395-95.333-25.765z"/><path d="m415.615 223.852v-17.132c-4.696-.108-9.34-.946-13.818-2.514l-145.797-51.029-145.802 51.031c-4.474 1.567-9.118 2.405-13.813 2.513v17.132c0 88.153 71.462 159.615 159.615 159.615s159.615-71.463 159.615-159.616zm-159.615-17.119c-8.28 0-15-6.722-15-15 0-8.279 6.72-15 15-15 8.272 0 15 6.721 15 15s-6.728 15-15 15z"/><path d="m301.407 137.284 110.305 38.607c5.632 1.972 10.683.17 13.635-1.924 3.965-2.813 6.32-7.373 6.32-12.234l-.095-48.894c-.02-10.32-10.214-17.538-19.955-14.129z"/><path d="m86.653 173.967c2.955 2.096 8.003 3.896 13.635 1.924l233.213-81.625h-238.168c-8.284 0-15 6.716-15 15v52.467c0 4.862 2.356 9.421 6.32 12.234z"/><path d="m336.333 0h-160.666c-38.717 0-70.834 27.661-77.833 64.267h316.333c-7.009-36.651-39.192-64.267-77.834-64.267z"/></g></svg>